<svg width="19" height="25" fill="none" xmlns="http://www.w3.org/2000/svg"><path d="M9.5 0C4.297 0 .064 4.233.064 9.436c0 2.151 1.512 5.338 4.495 9.473a73.85 73.85 0 004.41 5.502L9.5 25l.531-.59a73.819 73.819 0 004.41-5.501c2.983-4.135 4.495-7.322 4.495-9.473C18.936 4.233 14.703 0 9.5 0zm0 22.852C6.85 19.799 1.494 12.91 1.494 9.436c0-4.414 3.591-8.006 8.006-8.006s8.006 3.592 8.006 8.006c0 3.472-5.357 10.363-8.006 13.416z" fill="#FFD234"/><circle cx="9.5" cy="9.5" r="3.5" stroke="#FFD234" stroke-width="1.3"/></svg>