<svg width="27" height="27" fill="none" xmlns="http://www.w3.org/2000/svg"><path d="M13.5 1C6.607 1 1 6.607 1 13.5 1 20.392 6.607 26 13.5 26 20.392 26 26 20.392 26 13.5 26 6.607 20.392 1 13.5 1zm0 24.167c-6.433 0-11.667-5.234-11.667-11.667S7.067 1.833 13.5 1.833 25.167 7.067 25.167 13.5 19.933 25.167 13.5 25.167z" fill="#FFD234" stroke="#FFD234" stroke-width=".5"/><path d="M13.917 11.842V7.616a.417.417 0 10-.834 0v4.226a1.665 1.665 0 00-1.19 1.191H8.916a.417.417 0 100 .833h2.976c.186.717.833 1.25 1.607 1.25.92 0 1.667-.747 1.667-1.666 0-.775-.534-1.421-1.25-1.608zm-.417 2.441a.834.834 0 11.002-1.668.834.834 0 01-.002 1.668zm0-9.167c.23 0 .417-.186.417-.416v-.417a.417.417 0 10-.834 0V4.7c0 .23.187.416.417.416zm0 16.667a.417.417 0 00-.417.416v.417a.417.417 0 10.834 0v-.417a.417.417 0 00-.417-.416zm9.167-8.75h-.417a.417.417 0 100 .833h.417a.416.416 0 100-.833zm-17.917 0h-.417a.417.417 0 100 .833h.417a.417.417 0 100-.833zm14.937-6.36l-.295.294a.416.416 0 10.59.59l.294-.295a.416.416 0 10-.589-.59zM7.018 19.342l-.294.295a.416.416 0 10.589.589l.295-.295a.416.416 0 10-.59-.589zm12.964 0a.416.416 0 10-.59.59l.295.294a.416.416 0 00.59 0 .416.416 0 000-.59l-.295-.294zM7.313 6.673a.416.416 0 10-.59.59l.295.294a.416.416 0 00.59 0 .416.416 0 000-.59l-.295-.294z" fill="#FFD234"/></svg>