<svg width="93" height="92" fill="none" xmlns="http://www.w3.org/2000/svg"><g clip-path="url(#clip0_929_2537)"><g clip-path="url(#clip1_929_2537)"><path d="M61.986 68.053L44.58 58.356v-2.71c2.61-3.444 4.277-8.131 4.687-13.763h.734a2.093 2.093 0 002.088-2.09c0-1.566-.621-3.02-1.666-4.376V27.71a7.882 7.882 0 00-4.687-7.186L36.76 16.57a11.06 11.06 0 00-8.541 0l-8.964 3.966c-2.922 1.255-4.687 4.065-4.687 7.186v7.82C13.524 36.798 13 38.252 13 39.82c0 1.144.933 2.089 2.09 2.089h.422c.423 5.209 2.089 9.796 4.687 13.24v3.133L2.583 68.053C1.128 68.886.295 70.341.295 72.02v16.672c0 1.144.933 2.089 2.09 2.089H62.21a2.093 2.093 0 002.089-2.089V72.02c-.013-1.666-.958-3.232-2.313-3.966zM20.92 24.39l8.864-3.966c1.666-.733 3.543-.733 5.11 0l8.964 3.966c1.355.622 2.188 1.877 2.188 3.332v4.476c-3.444-1.778-8.23-2.922-13.65-2.922-5.471 0-10.22 1.119-13.652 2.872v-4.426c-.012-1.455.82-2.71 2.176-3.332zm11.575 9.063c6.676 0 12.196 1.977 14.285 4.277H18.11c2.188-2.3 7.609-4.277 14.385-4.277zm-12.93 8.442h25.437c-.622 7.609-4.165 15.528-12.719 15.528-6.775 0-11.885-6.564-12.718-15.528zm-2.81 22.938l6.353-3.543c.733-.311 1.144-1.044 1.144-1.778v-.423c2.4 1.567 5.11 2.5 8.031 2.5a15.7 15.7 0 008.032-2.189v.1c0 .733.422 1.454 1.044 1.777l6.353 3.544v8.752H16.756v-8.74zM12.69 86.615H4.461V72.019c0-.1.099-.211.21-.31l8.032-4.476v19.382h-.012zm4.066 0v-8.752h30.957v8.752H16.756zm43.352 0h-8.13V67.22l8.03 4.476s.1.1.1.31v14.609z" fill="#FFD234"/></g></g><path d="M89.508 17.328v1.44a15.639 15.639 0 11-9.274-14.295" stroke="#FFD234" stroke-width="4" stroke-linecap="round" stroke-linejoin="round"/><path d="M89.508 6.256L73.868 21.91l-4.691-4.692" stroke="#FFD234" stroke-width="4" stroke-linecap="round" stroke-linejoin="round"/><defs><clipPath id="clip0_929_2537"><path fill="#fff" transform="translate(0 14.127)" d="M0 0h65v77H0z"/></clipPath><clipPath id="clip1_929_2537"><path fill="#fff" transform="translate(-5.237 15.712)" d="M0 0h75.068v75.068H0z"/></clipPath></defs></svg>