<svg width="95" height="91" fill="none" xmlns="http://www.w3.org/2000/svg"><path d="M46.787 24.641h-6.851v-2.626c0-1.15-.943-2.1-2.112-2.1h-5.48c-.943-2.514-3.37-4.402-6.324-4.402-2.84 0-5.38 1.788-6.322 4.402h-5.481a2.11 2.11 0 00-2.112 2.1v2.739H5.267C2.313 24.754 0 27.167 0 29.994V85.76C0 88.699 2.426 91 5.267 91h41.42c2.953 0 5.266-2.414 5.266-5.24V29.993c.214-2.939-2.212-5.352-5.166-5.352zm1.156 61.12c0 .625-.528 1.05-1.056 1.05H5.481a1.058 1.058 0 01-1.056-1.05V29.993c0-.625.528-1.05 1.056-1.05h6.85v3.563c0 1.15.943 2.101 2.112 2.101H37.95a2.111 2.111 0 002.112-2.1v-3.565h6.85c.629 0 1.056.526 1.056 1.05l-.025 55.769zM23.607 22.128c.1-1.363 1.156-2.413 2.527-2.413 1.37 0 2.426 1.05 2.526 2.413.1 1.15.943 1.988 2.112 1.988h5.053v6.29H16.442v-6.29h5.053c1.157 0 2.112-.938 2.112-1.988z" fill="#FFD234"/><path d="M16.605 40.996l-3.054 3.039-.528-.525c-.742-.738-1.999-.738-2.74 0-.742.737-.742 1.988 0 2.725l1.898 1.889c.842.737 1.998.737 2.74 0l4.425-4.402c.741-.738.741-1.988 0-2.726-.73-.738-1.999-.738-2.74 0zm8.435 5.352h15.6a1.884 1.884 0 001.898-1.888c0-1.05-.943-1.888-1.999-1.888h-15.5a1.884 1.884 0 00-1.897 1.888c0 1.05.842 1.888 1.898 1.888zm-8.435 5.239l-3.054 3.039-.528-.525c-.742-.738-1.999-.738-2.74 0a1.947 1.947 0 000 2.726l1.898 1.888c.842.737 1.998.737 2.74 0l4.425-4.402c.741-.737.741-1.988 0-2.726-.73-.737-1.999-.737-2.74 0zm23.922 1.576H25.04a1.884 1.884 0 00-1.898 1.888c0 1.05.842 1.888 1.898 1.888h15.6a1.884 1.884 0 001.898-1.888c0-1.05-.955-1.888-2.011-1.888zm-23.922 9.015l-3.054 3.039-.528-.525c-.742-.738-1.999-.738-2.74 0a1.947 1.947 0 000 2.726l1.898 1.888c.842.737 1.998.737 2.74 0l4.425-4.402c.741-.737.741-1.988 0-2.726-.73-.737-1.999-.737-2.74 0zm23.922 1.563H25.04a1.884 1.884 0 00-1.898 1.888c0 1.05.842 1.889 1.898 1.889h15.6a1.884 1.884 0 001.898-1.889c0-1.05-.955-1.888-2.011-1.888zm-23.922 9.015l-3.054 3.039-.528-.525c-.742-.738-1.999-.738-2.74 0-.742.737-.742 1.988 0 2.726l1.898 1.888c.842.737 1.998.737 2.74 0l4.425-4.402c.741-.737.741-1.988 0-2.726-.73-.725-1.999-.725-2.74 0zm23.922 1.576H25.04a1.884 1.884 0 00-1.898 1.888c0 1.05.842 1.888 1.898 1.888h15.6a1.884 1.884 0 001.898-1.888c-.113-.938-.955-1.888-2.011-1.888z" fill="#FFD234"/><path d="M87.088 25.878a2.803 2.803 0 00-.188 1.605c.097.542.35 1.043.73 1.437l.098.1c.305.31.548.68.713 1.085a3.394 3.394 0 01-.713 3.645 3.273 3.273 0 01-1.066.726 3.234 3.234 0 01-2.516 0 3.281 3.281 0 01-1.066-.726l-.098-.1a2.694 2.694 0 00-1.412-.742 2.667 2.667 0 00-1.577.19c-.486.212-.9.564-1.192 1.013a2.793 2.793 0 00-.45 1.512v.284c0 .886-.347 1.737-.963 2.364a3.256 3.256 0 01-2.323.979 3.256 3.256 0 01-2.322-.98 3.373 3.373 0 01-.962-2.363v-.15a2.791 2.791 0 00-.505-1.54 2.716 2.716 0 00-1.27-.985 2.667 2.667 0 00-1.577-.19 2.695 2.695 0 00-1.411.742l-.099.1c-.305.31-.667.557-1.066.726a3.234 3.234 0 01-2.516 0 3.281 3.281 0 01-1.066-.726 3.348 3.348 0 01-.713-1.085 3.395 3.395 0 01.713-3.645l.099-.1c.379-.395.633-.895.73-1.437a2.802 2.802 0 00-.188-1.606 2.747 2.747 0 00-.995-1.213 2.676 2.676 0 00-1.485-.458h-.28a3.256 3.256 0 01-2.322-.98 3.373 3.373 0 01-.962-2.363c0-.887.346-1.737.962-2.364a3.256 3.256 0 012.323-.98h.148a2.68 2.68 0 001.513-.513c.442-.322.779-.772.966-1.292a2.802 2.802 0 00.188-1.605 2.775 2.775 0 00-.73-1.437l-.098-.1a3.348 3.348 0 01-.713-1.085 3.395 3.395 0 01.713-3.646c.305-.31.667-.557 1.066-.725a3.235 3.235 0 013.582.725l.098.1c.387.386.88.645 1.412.743a2.667 2.667 0 001.578-.19h.13a2.73 2.73 0 001.193-1.013c.291-.448.448-.974.45-1.512V5.82c0-.886.346-1.737.962-2.364a3.256 3.256 0 012.323-.979c.871 0 1.707.352 2.323.98a3.37 3.37 0 01.962 2.363v.15a2.79 2.79 0 00.45 1.512c.292.449.706.8 1.192 1.013a2.666 2.666 0 001.578.19 2.694 2.694 0 001.411-.742l.099-.1a3.273 3.273 0 011.066-.726 3.235 3.235 0 013.582.726c.305.31.547.679.713 1.085a3.395 3.395 0 01-.713 3.645l-.099.1a2.774 2.774 0 00-.73 1.437 2.803 2.803 0 00.188 1.606v.133c.208.495.554.916.995 1.213.44.297.957.457 1.485.459h.28c.87 0 1.706.352 2.322.979.616.627.962 1.477.962 2.364 0 .887-.346 1.737-.962 2.364a3.256 3.256 0 01-2.323.979h-.148a2.677 2.677 0 00-1.485.459 2.74 2.74 0 00-.994 1.213z" stroke="#FFD234" stroke-width="3.5" stroke-linecap="round" stroke-linejoin="round"/><path d="M74.923 25.877c2.721 0 4.927-2.245 4.927-5.014 0-2.77-2.206-5.015-4.927-5.015-2.72 0-4.927 2.245-4.927 5.015 0 2.77 2.206 5.014 4.927 5.014z" stroke="#FFD234" stroke-width="3.5" stroke-linecap="round" stroke-linejoin="round"/></svg>