<svg width="25" height="19" fill="none" xmlns="http://www.w3.org/2000/svg"><path d="M23.075.127H1.925A1.93 1.93 0 000 2.053v14.894a1.93 1.93 0 001.925 1.925h21.15A1.93 1.93 0 0025 16.947V2.053A1.93 1.93 0 0023.075.127zm-.28 1.424l-10.163 8.692L2.468 1.551h20.327zm.78 15.396a.504.504 0 01-.5.501H1.925a.504.504 0 01-.501-.5V2.532l10.744 9.187c.005.005.016.01.02.016.006.005.017.01.022.016.016.01.026.021.042.026.005.006.01.006.016.01l.063.032c.005 0 .01.006.016.006.016.005.032.016.053.02.005 0 .016.006.02.006.017.005.033.01.048.01.006 0 .016.006.021.006.016.005.037.005.053.01h.016c.021 0 .047.006.069.006.02 0 .047 0 .068-.005h.016a.186.186 0 00.053-.011c.005 0 .016-.005.02-.005a.154.154 0 01.048-.01c.006 0 .016-.006.021-.006a.288.288 0 00.053-.021c.005 0 .01-.006.016-.006l.063-.031c.006-.005.01-.005.016-.01l.042-.027c.006-.005.016-.01.021-.016.006-.005.016-.01.021-.016l10.49-8.96v14.187z" fill="#FFD234"/></svg>