<svg width="25" height="25" fill="none" xmlns="http://www.w3.org/2000/svg"><path d="M2.433.643L1.345 1.737l.03.03A6.3 6.3 0 00.479 3.35a6.562 6.562 0 00-.4 1.602c-.51 4.227 1.422 8.091 6.662 13.33 7.246 7.245 13.085 6.698 13.336 6.671a6.53 6.53 0 001.61-.404 6.243 6.243 0 001.574-.893l.024.022 1.102-1.08c.796-.797.82-2.07.052-2.839l-3.86-3.862c-.769-.766-2.042-.742-2.839.054l-1.945 1.945a29.502 29.502 0 01-.384-.214c-1.227-.68-2.908-1.614-4.678-3.384-1.775-1.774-2.708-3.458-3.39-4.688a45.04 45.04 0 00-.209-.374L8.44 7.93l.64-.641c.797-.8.82-2.07.053-2.84L5.271.59c-.767-.768-2.04-.744-2.838.053zm1.982.804l3.86 3.86c.296.296.272.802-.052 1.127L5.617 9.038l.24.406c.133.226.274.478.425.754.717 1.292 1.7 3.063 3.593 4.956 1.89 1.89 3.657 2.871 4.948 3.587.278.154.533.296.762.431l.405.242 2.606-2.607c.325-.324.83-.348 1.126-.052l3.86 3.86c.295.297.272.8-.052 1.125l-.485.484-.193.186a4.9 4.9 0 01-1.604 1.01 5.361 5.361 0 01-1.307.328c-.055.005-5.546.473-12.342-6.321C1.82 11.647.894 8.319 1.282 5.093a5.44 5.44 0 01.326-1.308A4.89 4.89 0 012.62 2.18l.67-.68c.326-.326.83-.349 1.126-.053z" fill="#FFD234"/></svg>