<svg width="62" height="62" fill="none" xmlns="http://www.w3.org/2000/svg"><path d="M33.875 34.1a7.1 7.1 0 100-14.2h-6a1.1 1.1 0 00-1.1 1.1v10.9h-2.65a1.1 1.1 0 000 2.2h2.65v2.8h-2.65a1.1 1.1 0 000 2.2h2.65V42a1.1 1.1 0 002.2 0v-2.9h6.15a1.1 1.1 0 000-2.2h-6.15v-2.8h4.9zm4.9-7.1a4.906 4.906 0 01-4.9 4.9h-4.9v-9.8h4.9a4.906 4.906 0 014.9 4.9z" fill="#FFD234" stroke="#FFD234" stroke-width=".2"/><path d="M31 1a30 30 0 1030 30A30.034 30.034 0 0031 1zm0 58a28 28 0 1128-28 28.032 28.032 0 01-28 28z" fill="#FFD234" stroke="#FFD234" stroke-width="2"/><path d="M48.755 15.794v0a3.272 3.272 0 10-3.272 3.271h0c.423 0 .841-.083 1.231-.244A19.894 19.894 0 0121.738 48.62h0a1.1 1.1 0 00-1.026 1.945h0A22.086 22.086 0 0048.35 17.344a3.24 3.24 0 00.406-1.55zm-4.344 0a1.072 1.072 0 112.144 0 1.072 1.072 0 01-2.144 0zM15.793 42.935h0a3.264 3.264 0 00-.651.07A19.679 19.679 0 0111.1 31h0A19.923 19.923 0 0131 11.1h0c2.91-.008 5.786.629 8.42 1.864h0a1.1 1.1 0 00.933-1.993 22.089 22.089 0 00-27.09 33.185 3.241 3.241 0 00-.742 2.05v0a3.272 3.272 0 103.272-3.271zm0 4.344a1.072 1.072 0 110-2.144 1.072 1.072 0 010 2.144z" fill="#FFD234" stroke="#FFD234" stroke-width=".2"/></svg>