<svg width="45" height="45" fill="none" xmlns="http://www.w3.org/2000/svg"><path d="M22.5 0a22.415 22.415 0 0115.91 6.59A22.419 22.419 0 0145 22.5c0 6.214-2.52 11.833-6.59 15.91A22.418 22.418 0 0122.5 45a22.406 22.406 0 01-15.91-6.59A22.418 22.418 0 010 22.5c0-6.214 2.52-11.833 6.59-15.91C10.668 2.52 16.287 0 22.5 0zm14.66 7.834A20.613 20.613 0 0022.5 1.756 20.613 20.613 0 007.84 7.834a20.613 20.613 0 00-6.079 14.66A20.613 20.613 0 007.84 37.156a20.614 20.614 0 0014.66 6.078 20.614 20.614 0 0014.66-6.078 20.614 20.614 0 006.079-14.66 20.623 20.623 0 00-6.079-14.66z" fill="#FFD234"/><path fill-rule="evenodd" clip-rule="evenodd" d="M29.587 30.541l3.321-15.857a.909.909 0 00-1.21-1.037L11.943 21.09a.686.686 0 00.024 1.293l5.049 1.695 11.723-7.42a.245.245 0 01.297.389l-9.167 8.376-.509 4.921.063.07a.398.398 0 00.566.021l2.927-2.761 4.831 3.57a1.17 1.17 0 001.84-.702z" fill="#FFD234"/></svg>