<svg width="45" height="45" fill="none" xmlns="http://www.w3.org/2000/svg"><path d="M22.5 0a22.415 22.415 0 0115.91 6.59A22.419 22.419 0 0145 22.5c0 6.214-2.52 11.833-6.59 15.91A22.418 22.418 0 0122.5 45a22.406 22.406 0 01-15.91-6.59A22.418 22.418 0 010 22.5c0-6.214 2.52-11.833 6.59-15.91C10.668 2.52 16.287 0 22.5 0zm14.66 7.834A20.613 20.613 0 0022.5 1.756 20.613 20.613 0 007.84 7.834a20.613 20.613 0 00-6.079 14.66A20.613 20.613 0 007.84 37.156a20.614 20.614 0 0014.66 6.078 20.614 20.614 0 0014.66-6.078 20.614 20.614 0 006.079-14.66 20.623 20.623 0 00-6.079-14.66z" fill="#FFD234"/><path d="M25.175 10h-5.09c-5.332 0-9.67 4.337-9.67 9.667v4.585c0 3.97 2.44 7.538 6.108 8.99v2.973a.508.508 0 00.85.377l2.951-2.672h4.85c5.332 0 9.67-4.337 9.67-9.668v-4.585c0-5.33-4.338-9.667-9.67-9.667zm8.651 14.253c0 4.769-3.88 8.649-8.651 8.649h-5.047a.508.508 0 00-.342.132l-2.245 2.034V32.89a.507.507 0 00-.34-.48 8.667 8.667 0 01-5.768-8.157v-4.586c0-4.77 3.881-8.65 8.652-8.65h5.09c4.77 0 8.651 3.88 8.651 8.65v4.585z" fill="#FFD234" stroke="#FFD234" stroke-width=".5"/><path d="M29.356 25.519l-3.128-2.032a1.524 1.524 0 00-2.112.448l-.147.226c-1.354-.448-2.847-1.019-3.74-3.606l.37-.322a1.53 1.53 0 00.15-2.154L18.3 15.264a.51.51 0 00-.718-.05l-1.536 1.335c-1.348 1.172-.718 2.905-.511 3.474a.49.49 0 00.033.074c.054.096 1.33 2.373 3.39 4.471 2.07 2.108 5.804 4.054 5.919 4.11a2.548 2.548 0 003.52-.748l1.108-1.706a.51.51 0 00-.15-.705zm-1.813 1.857c-.458.706-1.406.907-2.154.424-.037-.02-3.748-1.951-5.703-3.944-1.828-1.862-3.042-3.931-3.208-4.22-.403-1.13-.332-1.825.236-2.318l1.153-1.002 2.113 2.43a.504.504 0 01-.049.719l-.624.543a.508.508 0 00-.153.533c1.065 3.46 3.135 4.14 4.647 4.636l.22.072c.22.075.462-.01.588-.205l.36-.555a.503.503 0 01.705-.149l2.701 1.755-.831 1.28z" fill="#FFD234" stroke="#FFD234" stroke-width=".2"/><path d="M23.792 18.268a.508.508 0 10-.28.98c.76.215 1.363.82 1.577 1.579a.51.51 0 00.98-.276 3.327 3.327 0 00-2.277-2.282z" fill="#FFD234"/><path d="M27.665 21.308a.509.509 0 00.49-.647 6.463 6.463 0 00-4.422-4.432.508.508 0 10-.279.979 5.438 5.438 0 013.721 3.73.51.51 0 00.49.37z" fill="#FFD234"/><path d="M23.513 13.859a.508.508 0 10-.279.979 9.213 9.213 0 016.305 6.319.51.51 0 00.98-.276 10.239 10.239 0 00-7.006-7.022z" fill="#FFD234"/></svg>