<svg width="45" height="45" fill="none" xmlns="http://www.w3.org/2000/svg"><path d="M22.5 0a22.415 22.415 0 0115.91 6.59A22.419 22.419 0 0145 22.5c0 6.214-2.52 11.833-6.59 15.91A22.418 22.418 0 0122.5 45a22.406 22.406 0 01-15.91-6.59A22.418 22.418 0 010 22.5c0-6.214 2.52-11.833 6.59-15.91C10.668 2.52 16.287 0 22.5 0zm14.66 7.834A20.613 20.613 0 0022.5 1.756 20.613 20.613 0 007.84 7.834a20.613 20.613 0 00-6.079 14.66A20.613 20.613 0 007.84 37.156a20.614 20.614 0 0014.66 6.078 20.614 20.614 0 0014.66-6.078 20.614 20.614 0 006.079-14.66 20.623 20.623 0 00-6.079-14.66z" fill="#FFD234"/><path d="M26.684 11h-7.368C12.592 11 11 12.592 11 19.316v7.368C11 33.408 12.592 35 19.316 35h7.368C33.408 35 35 33.408 35 26.684v-7.368C35 12.592 33.39 11 26.684 11zm3.692 17.123H28.63c-.66 0-.864-.525-2.05-1.727-1.033-.998-1.49-1.135-1.746-1.135-.356 0-.457.1-.457.593v1.575c0 .424-.136.678-1.254.678-1.846 0-3.895-1.118-5.335-3.201-2.168-3.05-2.76-5.336-2.76-5.81 0-.254.099-.49.592-.49h1.746c.44 0 .61.202.78.677.863 2.49 2.303 4.674 2.893 4.674.22 0 .322-.1.322-.66v-2.575c-.068-1.185-.695-1.287-.695-1.71 0-.203.17-.407.44-.407h2.745c.373 0 .508.203.508.644v3.472c0 .372.17.508.271.508.22 0 .407-.136.813-.542 1.253-1.406 2.15-3.574 2.15-3.574.12-.254.323-.49.763-.49h1.747c.525 0 .643.27.525.643-.22 1.016-2.355 4.03-2.355 4.03-.186.306-.253.442 0 .78.187.254.799.779 1.203 1.253.745.848 1.321 1.558 1.473 2.05.173.49-.082.744-.573.744z" fill="#FFD234"/></svg>