<svg width="45" height="45" fill="none" xmlns="http://www.w3.org/2000/svg"><path d="M22.5 0a22.415 22.415 0 0115.91 6.59A22.419 22.419 0 0145 22.5c0 6.214-2.52 11.833-6.59 15.91A22.418 22.418 0 0122.5 45a22.406 22.406 0 01-15.91-6.59A22.418 22.418 0 010 22.5c0-6.214 2.52-11.833 6.59-15.91C10.668 2.52 16.287 0 22.5 0zm14.66 7.834A20.613 20.613 0 0022.5 1.756 20.613 20.613 0 007.84 7.834a20.613 20.613 0 00-6.079 14.66A20.613 20.613 0 007.84 37.156a20.614 20.614 0 0014.66 6.078 20.614 20.614 0 0014.66-6.078 20.614 20.614 0 006.079-14.66 20.623 20.623 0 00-6.079-14.66z" fill="#FFD234"/><path d="M22.214 10C15.48 10 10 15.479 10 22.214c0 2.298.638 4.529 1.85 6.465-.483 1.69-1.354 4.888-1.364 4.921a.468.468 0 00.592.572l4.841-1.489a12.184 12.184 0 006.295 1.746c6.736 0 12.215-5.48 12.215-12.215C34.429 15.48 28.949 10 22.214 10zm0 23.489c-2.123 0-4.19-.593-5.98-1.715a.47.47 0 00-.388-.05l-4.228 1.3c.31-1.133.869-3.16 1.193-4.289a.472.472 0 00-.058-.385 11.23 11.23 0 01-1.813-6.136c0-6.216 5.058-11.274 11.274-11.274 6.217 0 11.275 5.058 11.275 11.274 0 6.217-5.058 11.275-11.275 11.275z" fill="#FFD234" stroke="#FFD234" stroke-width=".5"/><path d="M30.194 25.092a33.594 33.594 0 01-2.145-1.317c-.412-.268-.709-.462-.927-.572-.61-.304-1.071-.09-1.247.088a.467.467 0 00-.058.072c-.633.95-1.46 1.857-1.701 1.906-.28-.043-1.588-.787-2.889-1.87-1.327-1.106-2.163-2.166-2.285-2.887.852-.877 1.158-1.428 1.158-2.056 0-.647-1.509-3.348-1.782-3.62-.274-.274-.89-.317-1.833-.129a.474.474 0 00-.24.128c-.114.114-2.786 2.838-1.516 6.139 1.393 3.622 4.97 7.833 9.53 8.517a9.883 9.883 0 001.458.116c2.682 0 4.266-1.35 4.711-4.027a.468.468 0 00-.235-.488zm-5.796 3.47c-4.822-.724-7.86-5.5-8.792-7.926-.926-2.405.781-4.55 1.21-5.034.348-.06.715-.085.868-.06.32.444 1.428 2.537 1.477 2.914 0 .247-.08.59-1.037 1.547a.468.468 0 00-.138.332c0 2.46 5.188 5.872 6.107 5.872.8 0 1.841-1.343 2.435-2.218a.446.446 0 01.174.055c.17.084.462.276.833.518.49.32 1.14.745 1.907 1.185-.348 1.677-1.323 3.373-5.044 2.814z" fill="#FFD234" stroke="#FFD234" stroke-width=".5"/></svg>